<svg version="1.1" viewBox="0.0 0.0 960.0 540.0" fill="none" stroke="none" stroke-linecap="square" stroke-miterlimit="10" xmlns:xlink="http://www.w3.org/1999/xlink" xmlns="http://www.w3.org/2000/svg"><clipPath id="p.0"><path d="m0 0l960.0 0l0 540.0l-960.0 0l0 -540.0z" clip-rule="nonzero"/></clipPath><g clip-path="url(#p.0)"><path fill="#000000" fill-opacity="0.0" d="m0 0l960.0 0l0 540.0l-960.0 0z" fill-rule="evenodd"/><path fill="#000000" fill-opacity="0.0" d="m16.585283 -13.204724l913.7638 0l0 395.9055l-913.7638 0z" fill-rule="evenodd"/><path fill="#000000" d="m185.0819 346.10706q-2.40625 -1.34375 -2.609375 -2.953125q-0.1875 -1.59375 1.8125 -5.59375q2.0 -4.0 6.265625 -12.390625q3.1875 -6.0 4.859375 -9.390625q1.671875 -3.40625 2.265625 -4.875q0.609375 -1.46875 0.609375 -1.875q-0.28125 -1.1875 0.25 -1.921875q0.546875 -0.734375 1.75 -1.265625q0.65625 -0.671875 2.1875 -2.40625q1.53125 -1.734375 2.875 -4.125q1.203125 -2.8125 2.796875 -5.734375q1.59375 -2.9375 4.265625 -7.40625q2.671875 -4.46875 6.9375 -11.671875q2.65625 -4.65625 5.859375 -9.515625q3.203125 -4.875 6.796875 -9.67189q1.46875 -1.875 2.671875 -3.0q1.203125 -1.140625 2.40625 -1.0q1.59375 0 3.65625 1.0625q2.078125 1.0625 3.796875 2.796875q1.734375 1.7343903 2.546875 3.7343903q0.65625 1.0625 0.515625 4.53125q-0.125 3.46875 -0.53125 8.40625q-0.390625 4.921875 -0.921875 10.53125q-0.40625 5.46875 -1.203125 12.9375q-0.796875 7.453125 -1.53125 15.59375q-0.734375 8.125 -1.140625 15.671875q-0.390625 7.53125 0 13.125q0.140625 1.203125 0 2.265625q-0.125 1.0625 -0.125 1.734375q-0.796875 0.796875 -2.609375 0.734375q-1.796875 -0.0625 -3.46875 -0.875q-1.65625 -0.796875 -1.921875 -2.0q-0.40625 -0.390625 -0.46875 -1.125q-0.0625 -0.734375 0.0625 -3.125q0.140625 -2.40625 0.265625 -7.609375l0.671875 -21.59375l-1.734375 0.125q-1.203125 0 -4.53125 0.265625q-3.328125 0.265625 -7.203125 0.734375q-3.859375 0.46875 -7.125 0.9375q-3.265625 0.46875 -4.46875 0.859375q-1.203125 0 -2.875 1.609375q-1.65625 1.59375 -3.125 4.125q-0.53125 1.875 -1.9375 3.9375q-1.390625 2.0625 -1.390625 2.734375q-0.9375 0.671875 -1.546875 1.609375q-0.59375 0.921875 -0.59375 0.921875q0 0.796875 -1.265625 3.9375q-1.265625 3.125 -3.140625 6.9375q-1.859375 3.796875 -3.734375 6.59375l-2.796875 4.265625l-2.125 -1.59375zm27.59375 -42.9375q0 0 1.390625 -0.265625q1.40625 -0.265625 3.34375 -0.59375q1.9375 -0.34375 3.53125 -0.34375q5.609375 -1.328125 8.140625 -1.796875q2.53125 -0.46875 3.53125 -0.46875q1.0 0 1.796875 0.40625q0.53125 0.65625 1.0 0.796875q0.46875 0.125 0.46875 0.125q0.125 -0.265625 0.390625 -3.0625q0.28125 -2.796875 0.734375 -6.921875q0.46875 -4.140625 0.9375 -8.609375q0.46875 -4.46875 0.734375 -8.265625q0.265625 -3.796875 0.40625 -5.796875q0.125 -2.53125 0.25 -4.59375q0.140625 -2.078125 0.140625 -2.078125q-0.796875 0 -3.40625 2.9375q-2.59375 2.9375 -5.796875 7.734375q-3.1875 4.796875 -6.0 10.265625q-1.328125 2.53125 -2.53125 4.53125q-1.1875 2.0 -1.859375 2.0q-0.265625 0.265625 -1.53125 2.34375q-1.265625 2.0625 -2.734375 4.65625q-1.46875 2.59375 -2.40625 4.671875q-0.921875 2.0625 -0.53125 2.328125zm89.33183 32.390625q-2.671875 0 -4.40625 -1.125q-1.734375 -1.140625 -2.921875 -3.796875q-0.53125 -1.875 -0.875 -4.203125q-0.328125 -2.328125 -0.328125 -4.390625q0 -2.078125 0.390625 -2.75q0.546875 -0.53125 0.46875 -1.921875q-0.0625 -1.40625 -0.0625 -3.0q-0.125 -2.671875 -1.265625 -3.0q-1.140625 -0.34375 -3.265625 0.859375q-2.40625 1.46875 -6.28125 3.9375q-3.859375 2.46875 -8.0625 5.40625q-4.1875305 2.921875 -7.9219055 6.125q-2.9375 3.203125 -3.546875 4.875q-0.59375 1.65625 -1.65625 1.65625q-1.0625 0.53125 -1.796875 0.078125q-0.734375 -0.46875 -2.0625 -1.546875q-0.9375 -1.0625 -1.875 -2.0625q-0.9375 -1.0 -1.203125 -1.53125q0 -0.671875 0.40625 -2.796875q0.40625 -2.140625 1.0 -4.265625q0.59375 -2.140625 0.859375 -2.8125q0.671875 0 1.140625 -1.328125q0.46875 -1.328125 1.53125 -2.9375q0.265625 -1.59375 1.390625 -4.328125q1.140625 -2.734375 2.078125 -4.859375q1.859375 -3.203125 2.59375 -5.328125q0.734375 -2.140625 1.0 -5.34375q-0.125 -0.53125 0.265625 -1.0q0.40625 -0.46875 0.9375 -0.46875l0 0l0 0q1.0625 -1.0625 2.53125 -0.59375q1.46875 0.46875 2.6719055 2.0625q2.40625 3.203125 1.9375 6.609375q-0.46875 3.390625 -4.3437805 9.65625q-0.921875 2.140625 -1.390625 3.28125q-0.46875 1.125 -0.46875 1.78125q0 0 1.390625 -0.921875q1.40625 -0.9375 3.2031555 -2.203125q1.8125 -1.265625 2.875 -1.9375q0.65625 -0.671875 3.0625 -2.40625q2.40625 -1.734375 5.125 -3.390625q2.734375 -1.671875 4.078125 -1.9375q1.0625 -0.53125 2.265625 -1.0q1.203125 -0.46875 1.734375 -0.46875q1.0625 0 2.71875 1.140625q1.671875 1.125 3.140625 2.671875q1.46875 1.53125 1.734375 2.59375q0 0.53125 0.0625 1.0625q0.078125 0.53125 0.203125 1.0625q0.53125 1.734375 0.59375 4.671875q0.078125 2.9375 -0.1875 5.34375q-0.265625 2.390625 -0.9375 2.796875q0 0 0.0625 0.328125q0.078125 0.328125 0.609375 0.328125q0 0.53125 0 0.609375q0 0.0625 0 0.0625q-0.671875 0 -0.546875 1.140625q0.140625 1.125 0.875 2.46875q0.734375 1.328125 1.53125 2.125q1.609375 1.59375 1.34375 3.0q-0.265625 1.390625 -2.40625 1.921875zm46.93518 4.8125q-0.53125 0 -1.53125 -0.203125q-1.0 -0.203125 -1.671875 -1.140625q-2.0 -2.390625 -2.53125 -3.984375q-0.53125 -1.609375 -0.140625 -4.671875q0.265625 -2.0 0.328125 -3.53125q0.078125 -1.546875 0.203125 -2.609375q-0.53125 -0.53125 -1.9375 0.734375q-1.390625 1.265625 -3.78125 3.140625q-4.546875 5.1875 -8.078125 7.921875q-3.53125 2.734375 -6.328125 3.609375q-2.796875 0.859375 -5.328125 0.59375q-2.265625 -0.265625 -3.609375 -1.921875q-1.328125 -1.671875 -1.671875 -4.34375q-0.328125 -2.671875 -0.0625 -5.734375q0.53125 -4.390625 1.9375 -8.390625q1.40625 -4.0 4.59375 -8.9375q1.46875 -2.671875 3.9375 -5.265625q2.46875 -2.609375 5.46875 -4.671875q3.0 -2.0625 5.796875 -3.0q3.0625 -1.203125 6.265625 -1.390625q3.203125 -0.203125 5.734375 0.59375q1.609375 0.796875 2.609375 0.796875q1.0 0 1.53125 -1.328125q0.65625 -1.0625 1.328125 -3.265625q0.671875 -2.203125 1.59375 -3.796875l2.9375 -8.671875q1.46875 -3.59375 3.203125 -7.59375q1.734375 -4.0 4.125 -9.734375q2.28125 -4.265625 3.734375 -5.0q1.46875 -0.734375 3.34375 1.125q1.46875 1.734375 1.0625 3.9375q-0.40625 2.203125 -2.40625 7.0q-0.921875 1.46875 -1.59375 2.734375q-0.671875 1.265625 -1.859375 3.9375q-1.734375 4.125 -3.203125 7.390625q-1.46875 3.265625 -3.078125 7.40625q-0.53125 2.125 -1.40625 4.9375q-0.859375 2.796875 -1.390625 5.0625q-0.390625 2.125 -0.859375 3.9375q-0.46875 1.796875 -1.0 1.796875q-1.0625 1.1875 -2.0 4.1875q-0.9375 3.0 -1.546875 6.203125q-0.59375 3.203125 -0.984375 5.34375q-0.265625 1.59375 -0.40625 4.125q-0.125 2.53125 -0.125 4.875q0 2.328125 0 3.265625q0 2.921875 -0.140625 3.734375q-0.140625 0.796875 -1.0625 0.796875zm-28.40625 -8.40625q2.796875 0 5.921875 -2.390625q3.140625 -2.40625 6.34375 -5.34375q2.0 -1.859375 4.328125 -4.921875q2.34375 -3.078125 4.53125 -6.140625q2.203125 -3.0625 3.53125 -5.390625q1.34375 -2.34375 1.34375 -2.875q0 -0.671875 -1.203125 -0.9375q-1.1875 -0.265625 -2.734375 -0.328125q-1.53125 -0.0625 -2.453125 0.203125q-2.9375 0.65625 -5.8125 2.65625q-2.859375 2.0 -6.1875 6.0q-3.46875 4.265625 -5.671875 8.8125q-2.203125 4.53125 -2.734375 7.59375q-0.53125 3.0625 0.796875 3.0625zm56.007355 40.40625q-0.140625 0.265625 -1.140625 -0.546875q-1.0 -0.796875 -1.9375 -1.9375q-0.921875 -1.125 -0.796875 -1.921875q-0.53125 -1.859375 0.203125 -4.59375q0.734375 -2.734375 3.265625 -8.078125q1.328125 -2.125 2.453125 -5.0625q1.140625 -2.9375 2.609375 -5.859375q0.671875 -1.203125 2.9375 -5.203125q2.265625 -4.0 4.859375 -9.0625q2.609375 -5.078125 4.34375 -9.609375q-3.46875 3.609375 -6.40625 7.28125q-2.9375 3.65625 -5.40625 5.921875q-2.453125 2.265625 -4.59375 2.140625q-1.734375 -0.40625 -3.671875 -1.265625q-1.921875 -0.875 -2.59375 -3.140625q-0.53125 -2.9375 -0.328125 -7.46875q0.203125 -4.53125 1.65625 -13.734375q1.078125 -4.53125 1.265625 -7.0q0.203125 -2.46875 -0.203125 -3.65625q-0.390625 -1.203125 -1.453125 -2.140625q-1.734375 -1.59375 -1.8125 -2.859375q-0.0625 -1.265625 1.8125 -2.203125q2.796875 -0.671875 4.0 -0.46875q1.203125 0.203125 2.9375 2.203125q1.0625 1.734375 1.921875 3.265625q0.875 1.53125 0.875 5.265625q0 1.59375 -0.46875 4.265625q-0.46875 2.671875 -0.8125 5.0q-0.328125 2.328125 -0.453125 3.265625q-1.328125 4.9375 -1.671875 8.53125q-0.328125 3.59375 0.34375 3.59375q2.65625 -2.125 5.125 -4.859375q2.46875 -2.734375 5.203125 -6.265625q2.734375 -3.53125 6.0625 -8.0625q1.203125 -2.265625 2.390625 -4.390625q1.203125 -2.140625 2.015625 -4.40625q0.796875 -1.734375 1.59375 -2.796875q0.796875 -1.078125 1.328125 -1.203125q0.671875 -0.28125 1.671875 0.125q1.0 0.40625 1.859375 0.875q0.875 0.453125 0.875 0.71875q0.140625 0.140625 0.671875 0.28125q0.53125 0.125 1.125 0.203125q0.609375 0.0625 0.609375 0.453125q0 0.265625 -0.609375 1.734375q-0.59375 1.46875 -1.328125 3.265625q-0.734375 1.796875 -1.265625 3.203125q-0.53125 1.40625 -0.40625 1.671875q0.265625 0.265625 -0.40625 1.9375q-0.65625 1.65625 -1.53125 3.65625q-0.859375 2.0 -1.53125 3.59375q-1.328125 4.40625 -3.0625 8.75q-1.734375 4.328125 -4.125 8.59375q-0.8125 1.59375 -2.34375 4.9375q-1.53125 3.328125 -2.9375 6.59375q-1.390625 3.265625 -2.1875 5.0q-0.53125 1.0625 -1.53125 3.390625q-1.0 2.34375 -2.140625 5.140625q-1.125 2.796875 -2.203125 5.265625q-1.0625 2.46875 -1.59375 3.796875q-0.265625 2.53125 -1.203125 3.734375q-0.53125 0 -1.203125 0.0625q-0.65625 0.078125 -0.65625 0.078125zm142.65222 -23.46875q0.140625 1.59375 -1.40625 1.796875q-1.53125 0.203125 -4.0 -0.53125q-2.453125 -0.734375 -5.125 -2.0q-2.671875 -1.265625 -4.671875 -2.46875q-2.53125 -0.671875 -7.0625 -4.9375q-4.53125 -4.265625 -9.734375 -10.390625q-5.328125 2.921875 -8.671875 4.734375q-3.328125 1.796875 -6.0625 2.9375q-2.734375 1.125 -6.453125 2.1875q-8.8125 0.796875 -16.140625 -1.734375q-1.0625 -0.390625 -2.734375 -1.59375q-1.671875 -1.203125 -3.265625 -2.53125q-1.59375 -1.34375 -2.265625 -2.0q-0.671875 -0.40625 -0.671875 -1.796875q0 -1.40625 0.265625 -2.875q0.265625 -1.46875 0.40625 -1.859375q0.40625 -1.203125 2.328125 -4.203125q1.9375 -3.0 4.9375 -7.0q3.0 -4.0 6.53125 -8.125q3.53125 -4.140625 7.0 -7.609375q-3.203125 -4.671875 -4.40625 -8.859375q-1.1875 -4.203125 0.078125 -9.140625q1.265625 -4.9375 5.0 -11.59375q1.328125 -2.140625 3.328125 -4.46875q2.0 -2.34375 4.0625 -4.40625q2.078125 -2.0625 3.609375 -3.1875q1.53125 -1.140625 1.65625 -0.875q0.546875 0.9375 1.078125 0.671875q0.53125 -0.28125 1.0625 -0.28125q0.53125 -0.265625 2.0 -0.1875q1.46875 0.0625 3.390625 0.328125q1.9375 0.265625 3.671875 0.9375q4.796875 0.53125 6.734375 1.0625q1.9375 0.53125 3.53125 2.40625q2.0 1.453125 3.0625 2.921875q1.078125 1.46875 1.53125 2.875q0.46875 1.390625 0.46875 2.59375q0 1.734375 -2.734375 5.34375q-2.71875 3.59375 -7.25 7.59375q-1.734375 2.125 -3.546875 3.796875q-1.796875 1.671875 -1.796875 1.671875q0 0.53125 -0.671875 1.46875q-0.65625 0.921875 -1.71875 1.328125q-1.46875 1.328125 -4.140625 3.734375q-2.671875 2.390625 -4.8125 4.390625q-2.125 2.0 -2.25 2.40625q-0.140625 0.265625 1.1875 2.34375q1.34375 2.0625 3.46875 4.859375q2.140625 2.796875 4.34375 5.53125q2.203125 2.734375 3.921875 4.53125q1.734375 1.796875 2.28125 1.796875q4.390625 -4.265625 9.125 -8.328125q4.734375 -4.0625 9.671875 -8.59375q3.328125 -3.46875 4.71875 -4.859375q1.40625 -1.40625 2.140625 -1.265625q0.734375 0.125 1.671875 1.046875q1.734375 0.265625 1.859375 1.671875q0.140625 1.40625 -0.390625 2.671875q-0.53125 1.265625 -0.671875 1.390625q-1.734375 2.265625 -4.796875 5.203125q-3.0625 2.9375 -6.53125 6.078125q-3.46875 3.125 -6.546875 5.921875q-3.0625 2.796875 -5.0625 4.796875q0 0 1.671875 1.9375q1.671875 1.9375 3.265625 3.390625q4.40625 4.546875 6.796875 6.34375q2.40625 1.796875 5.46875 2.859375q4.140625 1.34375 6.140625 3.265625q2.0 1.9375 2.125 4.875zm-65.46875 -16.140625q4.0 1.203125 7.859375 0.875q3.875 -0.34375 8.203125 -2.203125q4.34375 -1.875 9.40625 -5.328125l2.53125 -1.875l-3.328125 -3.859375q-0.9375 -1.078125 -2.8125 -3.609375q-1.859375 -2.53125 -3.71875 -4.796875q-2.0 -1.859375 -3.078125 -3.59375q-1.0625 -1.734375 -1.0625 -1.734375q-0.390625 0 -1.796875 1.328125q-1.390625 1.328125 -2.9375 3.140625q-1.53125 1.796875 -2.328125 3.125q-3.0625 2.40625 -4.671875 4.734375q-1.59375 2.328125 -3.59375 5.40625q-0.9375 2.125 -1.078125 3.734375q-0.125 1.59375 0.46875 2.671875q0.609375 1.0625 1.9375 1.984375zm15.203125 -38.65625q1.46875 -1.609375 4.46875 -4.0625q3.0 -2.46875 6.53125 -5.46875q3.53125 -3.0 6.59375 -6.125q3.078125 -3.140625 4.875 -6.0q1.796875 -2.875 1.140625 -5.140625q-0.265625 -0.546875 -2.203125 -1.46875q-1.9375 -0.9375 -4.28125 -1.734375q-2.328125 -0.796875 -3.921875 -0.671875q-2.671875 -0.265625 -6.078125 2.8125q-3.390625 3.0625 -6.453125 7.453125q-3.328125 4.9375 -4.0 10.34375q-0.671875 5.390625 3.328125 10.0625zm82.931274 52.53125q-1.734375 -1.078125 -1.875 -2.078125q-0.125 -1.0 0.671875 -3.796875q-0.125 -1.734375 0.203125 -3.1875q0.34375 -1.46875 0.46875 -2.015625q0.671875 0 0.796875 -0.796875q0.140625 -0.796875 0.140625 -1.328125q0 -1.0625 0.859375 -3.59375q0.875 -2.546875 1.53125 -5.203125q1.078125 -2.671875 2.078125 -5.0q1.0 -2.34375 1.0 -2.875q0 -1.0625 0.53125 -2.1875q0.53125 -1.140625 1.203125 -2.203125q0.65625 -1.609375 0.984375 -3.53125q0.34375 -1.9375 0.34375 -3.0q0.796875 -1.734375 1.734375 -3.734375q0.9375 -2.0 1.46875 -4.140625q0.796875 -2.265625 2.328125 -6.59375q1.53125 -4.34375 3.265625 -8.875q1.203125 -2.53125 2.390625 -5.328125q1.203125 -2.796875 2.140625 -4.796875q0.9375 -2.0 1.34375 -2.0q0 0 0 -0.46875q0 -0.46875 0 -1.0q0 -0.671875 1.0625 -2.59375q1.0625 -1.9375 2.0 -4.078125q1.328125 -2.0 1.859375 -3.796875q0.53125 -1.796875 0.53125 -1.796875q0 0 0.46875 -0.79689026q0.46875 -0.796875 1.0 -1.34375q1.734375 -1.1875 3.265625 -0.921875q1.53125 0.265625 2.609375 2.5312653q1.0625 2.125 0.921875 3.53125q-0.125 1.40625 -1.1875 3.0q-1.078125 2.40625 -2.8125 6.078125q-1.734375 3.65625 -3.671875 7.859375q-1.921875 4.1875 -3.59375 8.0q-1.65625 3.796875 -2.65625 6.53125q-1.0 2.734375 -1.0 3.390625l-5.46875 13.46875q0 0.265625 -0.46875 1.34375q-0.46875 1.0625 -1.203125 3.203125q-0.734375 2.125 -1.796875 5.59375q-1.0625 3.46875 -2.53125 8.390625q-2.671875 8.53125 -4.140625 13.265625q-1.46875 4.734375 -2.328125 6.53125q-0.859375 1.8125 -1.796875 1.8125q-0.53125 0 -1.140625 -0.46875q-0.59375 -0.46875 -1.53125 -1.0zm47.0625 1.0625q-1.1875 0.140625 -3.265625 -1.140625q-2.0625 -1.265625 -4.40625 -3.140625q-2.328125 -1.859375 -4.390625 -3.859375q-2.0625 -2.0 -3.265625 -3.453125q-2.140625 -3.078125 -5.34375 -8.078125q-3.1875 -5.0 -4.78125 -10.734375q-0.9375 -4.265625 -1.875 -6.71875q-0.9375 -2.46875 -1.203125 -4.078125l0.140625 -9.328125l6.796875 2.140625q0.671875 7.1875 2.0625 11.921875q1.40625 4.734375 3.40625 8.34375q1.59375 3.453125 3.59375 6.859375q2.0 3.40625 4.265625 5.671875q3.078125 3.328125 5.46875 4.9375q2.40625 1.59375 3.609375 1.59375q0.65625 0.125 1.921875 0.9375q1.265625 0.796875 2.390625 1.671875q1.140625 0.859375 1.28125 1.65625q0.125 0.390625 0.125 1.25q0 0.875 -0.203125 1.609375q-0.1875 0.734375 -0.453125 1.140625q-0.40625 0.9375 -1.40625 1.65625q-1.0 0.734375 -4.46875 -0.859375zm-29.859375 -49.46875l9.734375 -7.0625q0.390625 -0.40625 2.859375 -2.671875q2.46875 -2.265625 8.203125 -6.53125l16.40625 -13.328125q3.328125 -1.734375 6.859375 -4.390625q3.53125 -2.671875 5.40625 -3.875q2.265625 -1.609375 4.0 -2.796875q1.734375 -1.203125 2.265625 -1.078125q1.0625 -0.53126526 2.1875 0.34375q1.140625 0.859375 1.875 2.265625q0.734375 1.390625 0.59375 2.46875q0.265625 1.328125 -0.53125 2.265625q-0.796875 0.921875 -3.859375 2.65625q-2.53125 1.203125 -4.46875 2.40625q-1.9375 1.203125 -2.328125 2.0q0 0 -2.46875 1.9375q-2.46875 1.921875 -6.34375 4.59375q-5.328125 3.46875 -9.125 6.53125q-3.796875 3.0625 -4.875 4.671875q-0.53125 0 -1.0 0.40625q-0.453125 0.390625 -1.0 0.265625q0 0 -1.0 0.671875q-1.0 0.65625 -1.53125 1.328125q-0.265625 0.65625 -1.140625 1.859375q-0.859375 1.203125 -2.1875 1.0625q-0.9375 0.53125 -3.34375 2.203125q-2.390625 1.671875 -5.0 3.671875q-2.59375 2.0 -4.46875 3.59375q-1.859375 1.59375 -1.984375 1.875l-3.734375 -7.34375zm67.86096 38.796875q-2.796875 2.40625 -6.46875 2.8125q-3.65625 0.390625 -7.125 -1.140625q-3.46875 -1.53125 -5.734375 -4.734375q-2.265625 -2.9375 -2.9375 -6.734375q-0.671875 -3.796875 -0.125 -9.9375q0.390625 -5.1875 3.328125 -10.453125q2.9375 -5.265625 7.125 -9.390625q4.203125 -4.140625 8.34375 -5.75q2.0 -1.328125 3.390625 -1.265625q1.40625 0.0625 4.34375 0.328125q3.0625 0.40625 4.59375 1.203125q1.53125 0.796875 2.46875 2.140625q2.0 2.0 2.65625 3.9375q0.671875 1.921875 0.671875 3.796875q-0.53125 2.921875 -3.9375 7.125q-3.390625 4.203125 -8.859375 6.875q-2.9375 0.921875 -6.40625 0.796875q-3.453125 -0.140625 -5.71875 -1.734375q-2.546875 -1.0625 -3.34375 0.34375q-0.796875 1.390625 -1.46875 6.71875q-0.53125 5.0625 0.796875 7.40625q1.34375 2.328125 3.609375 2.734375q2.671875 0.53125 4.203125 0.734375q1.53125 0.1875 3.796875 -1.140625q2.125 -1.328125 2.65625 -1.53125q0.546875 -0.203125 0.875 -0.53125q0.328125 -0.34375 1.671875 -1.671875q0.921875 -0.9375 1.453125 -1.390625q0.546875 -0.46875 1.203125 -0.46875q0.671875 0 1.203125 0.59375q0.53125 0.59375 1.0625 0.875q1.34375 0 0.609375 1.59375q-0.734375 1.59375 -2.875 3.796875q-2.125 2.203125 -5.0625 4.0625zm-0.125 -28.265625q1.453125 -0.65625 3.046875 -1.921875q1.609375 -1.265625 2.734375 -2.796875q1.140625 -1.546875 1.140625 -2.609375q0 -1.859375 -1.734375 -3.125q-1.734375 -1.28125 -5.1875 -0.34375q-1.46875 0.40625 -3.34375 1.9375q-1.859375 1.53125 -3.53125 3.40625q-1.671875 1.859375 -2.671875 3.328125q-1.0 1.46875 -0.71875 1.734375q0.390625 0.65625 2.25 1.0q1.875 0.328125 4.203125 0.203125q2.34375 -0.140625 3.8125 -0.8125zm26.65979 28.796875q-2.0 -0.265625 -3.40625 -2.859375q-1.390625 -2.59375 -1.65625 -4.734375q0.125 -1.0625 0.328125 -3.0625q0.203125 -2.0 0.46875 -4.140625q0.53125 -2.53125 1.453125 -6.1875q0.9375 -3.671875 1.9375 -7.40625q1.0 -3.734375 1.796875 -6.390625q0.8125 -2.671875 1.078125 -3.203125q0.671875 -1.078125 2.125 -0.53125q1.46875 0.53125 2.40625 1.59375q0.796875 1.0625 1.0 2.53125q0.203125 1.46875 -0.40625 4.265625q-0.59375 2.796875 -2.1875 8.265625q-1.46875 5.328125 -2.203125 8.609375q-0.734375 3.265625 -0.609375 6.859375q-0.53125 4.53125 -0.796875 5.53125q-0.265625 1.0 -1.328125 0.859375zm15.328125 -53.1875q-0.53125 0.390625 -1.0 0.328125q-0.46875 -0.0625 -1.53125 -0.734375q-0.9375 -0.125 -2.34375 -1.25q-1.390625 -1.140625 -2.390625 -2.40625q-1.0 -1.28125 -1.0 -1.546875q-0.125 -1.328125 0.203125 -3.390625q0.328125 -2.0625 1.390625 -3.734375q1.078125 -1.671875 3.078125 -1.796875q0.53125 0 0.921875 0.140625q0.40625 0.125 2.40625 0.921875q1.0625 2.0 2.125 4.46875q1.078125 2.46875 0.9375 4.796875q-0.125 2.328125 -2.796875 4.203125zm5.463623 52.65625q-1.1875 -0.921875 -1.65625 -1.859375q-0.46875 -0.9375 -0.078125 -3.609375q0.40625 -3.71875 1.0625 -6.578125q0.671875 -2.875 1.609375 -6.609375q0.265625 -1.609375 1.53125 -5.46875q1.265625 -3.875 3.125 -8.40625q1.875 -4.53125 3.734375 -8.59375q1.875 -4.0625 3.21875 -6.0625q1.0625 -0.8125 2.59375 -0.671875q1.53125 0.140625 2.59375 1.203125q1.46875 1.203125 0.46875 4.203125q-1.0 3.0 -4.0625 9.390625q-1.59375 3.609375 -2.40625 5.40625q-0.796875 1.796875 -0.671875 2.140625q0.140625 0.328125 1.203125 -0.34375q0.8125 -1.46875 2.9375 -3.390625q2.140625 -1.9375 4.53125 -3.796875q2.40625 -1.875 4.53125 -3.34375q2.140625 -1.46875 2.9375 -1.875q1.0625 -0.65625 2.46875 -1.125q1.40625 -0.46875 1.9375 -0.734375q3.0625 -1.46875 6.265625 -1.0625q3.203125 0.390625 4.0 2.390625q0.125 1.078125 0.859375 1.609375q0.734375 0.53125 0.734375 0.53125q0.53125 0 0.59375 0.40625q0.078125 0.390625 0.078125 0.390625q0 0.9375 -1.40625 1.140625q-1.390625 0.1875 -3.53125 0.328125q-1.734375 0.125 -3.0625 0.671875q-1.328125 0.53125 -3.203125 1.328125q-5.0625 2.9375 -9.671875 5.734375q-4.59375 2.796875 -8.859375 7.46875q-0.9375 1.0625 -1.875 2.53125q-0.921875 1.46875 -1.984375 3.203125q-0.671875 0.65625 -1.34375 2.921875q-0.65625 2.265625 -1.125 4.34375q-0.46875 2.0625 -0.46875 2.453125q0 0 -0.40625 1.28125q-0.390625 1.265625 -1.328125 2.453125q-1.609375 2.140625 -2.671875 2.140625q-1.0625 0 -3.203125 -2.140625zm53.732544 0.265625q-1.59375 0.265625 -3.46875 -0.53125q-1.859375 -0.796875 -3.265625 -2.265625q-1.390625 -1.46875 -1.796875 -3.0625q-0.53125 -2.796875 0.734375 -7.0q1.265625 -4.203125 3.734375 -8.9375q2.46875 -4.734375 5.59375 -9.125q3.140625 -4.40625 6.53125 -7.671875q3.40625 -3.265625 6.34375 -4.46875q1.46875 -0.921875 2.328125 -1.25q0.875 -0.34375 1.875 -0.078125q1.0 0.265625 3.0 1.328125q1.859375 0.53125 2.796875 1.203125q0.9375 0.671875 2.390625 2.671875q1.078125 2.0 1.609375 4.0q0.53125 2.0 0.9375 4.53125q1.0625 3.328125 0.796875 4.328125q-0.265625 1.0 -0.796875 1.53125q-1.078125 1.34375 -0.546875 1.34375q0 0 -0.0625 0.46875q-0.0625 0.453125 -0.59375 1.390625q-0.9375 2.9375 -1.40625 6.078125q-0.46875 3.125 0.0625 5.125q1.078125 2.9375 3.875 3.46875q2.796875 0.53125 5.734375 -2.40625q1.46875 -1.0625 2.796875 -1.921875q1.328125 -0.875 1.328125 0.1875q0 0 0.40625 0.34375q0.40625 0.328125 0.9375 0.328125q0.65625 0 0.859375 0.53125q0.203125 0.53125 0 1.40625q-0.203125 0.859375 -0.859375 1.921875q-2.0 2.0 -2.0 2.671875q0 0 -0.46875 0.46875q-0.46875 0.46875 -1.53125 1.390625q-2.40625 1.46875 -6.078125 1.46875q-3.65625 0 -5.65625 -1.46875q-2.0 -1.453125 -3.671875 -3.984375q-1.671875 -2.546875 -2.203125 -4.40625l-0.65625 -1.328125l-3.875 2.53125q-1.46875 1.453125 -3.140625 2.796875q-1.65625 1.328125 -2.1875 1.859375q-0.40625 0.53125 -0.875 0.9375q-0.453125 0.40625 -1.0 0.40625q-0.53125 0 -0.9375 0q-0.390625 0 -0.390625 0q0 0.53125 -1.265625 1.328125q-1.265625 0.796875 -2.9375 1.328125q-1.65625 0.53125 -3.0 0.53125zm-1.328125 -7.1875q0.796875 0 2.859375 -1.265625q2.078125 -1.265625 4.671875 -3.0q2.609375 -1.734375 4.671875 -3.46875q2.0625 -1.734375 2.859375 -2.671875q0.53125 -0.53125 1.734375 -1.796875q1.203125 -1.265625 2.140625 -2.203125q3.0625 -3.46875 4.265625 -7.65625q1.203125 -4.203125 -0.265625 -6.609375q-0.53125 -1.46875 -1.34375 -1.59375q-0.796875 -0.140625 -3.328125 0.921875q-1.59375 0.9375 -3.9375 3.546875q-2.328125 2.59375 -4.9375 6.0q-2.59375 3.390625 -4.859375 7.0q-2.265625 3.59375 -3.734375 6.65625q-1.46875 3.0625 -1.46875 4.796875q0 0.53125 0.328125 0.9375q0.34375 0.40625 0.34375 0.40625z" fill-rule="nonzero"/></g></svg>