<svg version="1.1" viewBox="0.0 0.0 960.0 540.0" fill="none" stroke="none" stroke-linecap="square" stroke-miterlimit="10" xmlns:xlink="http://www.w3.org/1999/xlink" xmlns="http://www.w3.org/2000/svg"><clipPath id="g13b2222ae70_0_0.0"><path d="m0 0l960.0 0l0 540.0l-960.0 0l0 -540.0z" clip-rule="nonzero"/></clipPath><g clip-path="url(#g13b2222ae70_0_0.0)"><path fill="#000000" fill-opacity="0.0" d="m0 0l960.0 0l0 540.0l-960.0 0z" fill-rule="evenodd"/><path fill="#000000" fill-opacity="0.0" d="m-1.8897637E-5 0l913.76373 0l0 395.90552l-913.76373 0z" fill-rule="evenodd"/><path fill="#ffffff" d="m67.88805 304.10867q-7.203129 -4.0 -7.812504 -8.8125q-0.59375 -4.796875 5.406254 -16.796875q6.0 -12.0 18.796875 -37.1875q9.609375 -18.0 13.0 -28.203125q3.40625 -10.203125 3.796875 -14.59375q0.40625 -4.40625 0.40625 -5.609375q-0.796875 -3.59375 0.796875 -5.796875q1.609375 -2.203125 5.203125 -3.796875q2.0 -2.0 9.203125 -7.203125q7.203125 -5.203125 11.203125 -12.40625q3.59375 -8.390625 8.1875 -17.1875q4.609375 -8.8125 12.203125 -22.203125q7.609375 -13.40625 20.40625 -35.0q8.0 -14.0 19.0 -31.59375q11.0 -17.609375 21.796875 -32.015625q4.40625 -5.59375 9.203125 -8.796875q4.796875 -3.203125 8.390625 -3.203125q8.8125 0 17.609375 4.609375q8.796875 4.59375 15.593735 11.390625q6.796875 6.796875 9.203125 12.796875q2.0 3.203125 1.59375 13.609375q-0.390625 10.390625 -1.59375 25.203125q-1.203125 14.796875 -2.796875 31.59375q-1.203125 16.40625 -3.609375 38.8125q-2.390625 22.390625 -4.59375 46.796875q-2.203125 24.390625 -3.4062347 47.0q-1.1875 22.59375 0 39.390625q0.40625 3.59375 0 6.796875q-0.390625 3.203125 -0.390625 5.203125q-2.40625 2.40625 -10.40625 2.203125q-8.0 -0.203125 -15.609375 -2.609375q-7.59375 -2.390625 -8.390625 -6.0q-1.203125 -1.1875 -1.609375 -1.984375q-0.390625 -0.8125 0 -7.8125q0.40625 -7.0 1.21875 -25.796875l2.0 -61.203125l-5.203125 0.40625q-3.609375 0 -13.015625 0.796875q-9.390625 0.796875 -20.390625 2.203125q-11.0 1.390625 -20.203125 2.796875q-9.1875 1.40625 -12.796875 2.59375q-3.59375 0 -8.59375 4.8125q-5.0 4.796875 -9.40625 12.390625q-1.59375 5.609375 -5.796875 11.8125q-4.203125 6.1875 -4.203125 8.1875q-2.796875 2.0 -4.59375 4.8125q-1.796875 2.796875 -1.796875 2.796875q0 2.390625 -3.40625 11.796875q-3.40625 9.390625 -8.8125 20.796875q-5.390625 11.40625 -10.984375 19.796875l-10.796875 15.203125l-14.0 -10.796875zm95.59375 -137.60938q0 0 4.390625 -0.796875q4.40625 -0.796875 10.609375 -1.796875q6.203125 -1.0 11.0 -1.0q9.203125 -2.40625 15.390625 -3.59375q6.203125 -1.203125 10.203125 -1.40625q4.0 -0.203125 6.40625 1.0q1.59375 2.0 3.0 2.40625q1.40625 0.390625 1.40625 0.390625q0.390625 -0.796875 1.59375 -8.390625q1.203125 -7.609375 2.796875 -18.796875q1.609375 -11.203125 3.203125 -23.40625q1.59375 -12.203125 2.796875 -22.796875q1.203125 -10.609375 1.609375 -16.609375q0.390625 -7.59375 -0.40625 -13.796875q-0.796875 -6.203125 -0.796875 -6.203125q-2.40625 0 -9.015625 8.609375q-6.59375 8.59375 -15.1875 22.796875q-8.59375 14.203125 -17.0 30.59375q-4.0 7.609375 -7.40625 12.015625q-3.390625 4.390625 -5.390625 4.390625q-0.796875 0.796875 -4.203125 6.203125q-3.40625 5.390625 -7.203125 12.0q-3.796875 6.59375 -6.40625 12.0q-2.59375 5.390625 -1.390625 6.1875zm447.99695 146.0q0.40625 4.8125 -5.40625 6.609375q-5.796875 1.796875 -14.796875 1.1875q-9.0 -0.59375 -18.203125 -3.203125q-9.1875 -2.59375 -15.1875 -6.1875q-7.609375 -2.0 -19.203125 -14.796875q-11.59375 -12.796875 -27.203156 -31.203125q-16.0 8.796875 -26.0 14.203125q-10.0 5.390625 -18.203125 8.796875q-8.1875 3.40625 -19.390625 6.59375q-26.40625 2.40625 -48.40625 -5.1875q-3.203125 -1.203125 -9.203125 -4.796875q-6.0 -3.609375 -11.796875 -7.609375q-5.796875 -4.0 -7.796875 -6.0q-2.0 -1.203125 -3.0 -7.390625q-1.0 -6.203125 -1.203125 -12.609375q-0.203125 -6.40625 0.203125 -7.59375q1.203125 -3.609375 7.0 -12.609375q5.796875 -9.0 14.796875 -21.0q9.0 -12.0 19.59375 -24.390625q10.609375 -12.40625 21.015625 -22.8125q-9.609375 -14.0 -13.21875 -27.59375q-3.59375 -13.59375 0.203125 -29.390625q3.8125 -15.8125 15.015625 -35.8125q4.0 -6.390625 10.59375 -13.984375q6.59375 -7.609375 13.59375 -14.609375q7.0 -7.0 12.203125 -11.0q5.203125 -4.0 5.609375 -3.203125q1.59375 2.796875 3.1875 2.0q1.609375 -0.796875 3.203125 -0.796875q1.609375 -0.796875 7.0 -0.59375q5.40625 0.1875 12.203125 1.0q6.796875 0.796875 12.0 2.796875q14.4062805 1.59375 20.203156 3.203125q5.796875 1.59375 10.59375 7.1875q6.0 4.40625 11.203125 10.8125q5.203125 6.390625 8.59375 12.59375q3.40625 6.203125 3.40625 9.796875q0 5.203125 -8.203125 16.0q-8.203125 10.796875 -21.796875 22.796875q-5.203125 6.40625 -10.609375 11.40625q-5.390625 5.0 -5.390625 5.0q0 1.59375 -2.0 4.40625q-2.0 2.796875 -5.2031555 3.984375q-4.390625 4.0 -12.390625 11.203125q-8.0 7.203125 -14.40625 13.203125q-6.40625 6.0 -6.796875 7.203125q-0.40625 0.796875 2.796875 6.203125q3.203125 5.390625 8.390625 12.59375q5.203125 7.203125 10.609375 14.203125q5.40625 7.0 9.796875 11.609375q4.4062805 4.59375 6.0000305 4.59375q13.203125 -12.8125 27.40625 -25.0q14.203125 -12.203125 29.0 -25.8125q10.0 -10.390625 15.1875 -13.59375q5.203125 -3.203125 8.40625 -1.796875q3.203125 1.390625 6.0 4.203125q5.203125 0.796875 5.59375 7.0q0.40625 6.1875 -1.203125 12.0q-1.59375 5.796875 -1.984375 6.1875q-5.203125 6.8125 -14.0 15.21875q-8.796875 8.390625 -18.40625 17.0q-9.59375 8.59375 -18.40625 16.59375q-8.796875 8.0 -14.796875 14.0q0 0 5.0 5.796875q5.0 5.796875 9.8125 10.203125q13.1875 13.59375 20.390625 19.0q7.203125 5.390625 16.40625 8.59375q12.390625 4.0 16.796875 9.390625q4.40625 5.40625 4.796875 14.203125zm-192.39066 -52.390625q12.0 3.59375 20.59375 2.59375q8.59375 -1.0 18.59375 -6.59375q10.0 -5.609375 25.203125 -16.0l7.609375 -5.609375l-10.0 -11.59375q-2.8125 -3.203125 -6.40625 -8.796875q-3.59375 -5.609375 -9.203125 -12.40625q-6.0 -5.59375 -7.796875 -8.796875q-1.796875 -3.203125 -1.796875 -3.203125q-1.203125 0 -5.40625 4.0q-4.203125 4.0 -8.796875 9.40625q-4.59375 5.390625 -7.0 9.390625q-9.203125 7.203125 -14.0 14.203125q-4.796875 7.0 -10.796875 16.203125q-2.796875 6.40625 -2.0 9.203125q0.796875 2.796875 4.0 4.0q3.203125 1.203125 7.203125 4.0zm37.59375 -120.0q4.40625 -4.796875 12.59375 -11.0q8.203125 -6.203125 17.40625 -13.203125q9.203125 -7.0 17.203125 -14.390625q8.0 -7.40625 12.3906555 -14.796875q4.40625 -7.40625 2.40625 -14.21875q-0.796875 -1.59375 -4.40625 -3.59375q-3.5937805 -2.0 -8.3906555 -3.59375q-4.796875 -1.609375 -9.609375 -1.203125q-8.0 -0.796875 -14.796875 5.609375q-6.796875 6.390625 -16.0 19.59375q-10.0 14.796875 -13.40625 27.0q-3.390625 12.1875 4.609375 23.796875zm253.60318 169.59375q-5.203125 -3.203125 -9.609375 -7.796875q-4.390625 -4.59375 -2.0 -13.0q-0.390625 -4.796875 0.609375 -9.1875q1.0 -4.40625 1.390625 -6.015625q2.0 0 2.40625 -2.1875q0.40625 -2.203125 0.40625 -3.8125q0 -3.203125 2.390625 -10.796875q2.40625 -7.59375 4.796875 -16.0q3.203125 -6.796875 6.203125 -14.390625q3.0 -7.609375 3.0 -9.203125q0 -3.203125 1.59375 -6.59375q1.609375 -3.40625 3.609375 -6.609375q2.0 -4.796875 3.0 -10.59375q1.0 -5.8125 1.0 -9.015625q2.40625 -5.1875 5.203125 -11.1875q2.796875 -6.0 4.390625 -12.40625q2.40625 -6.796875 7.203125 -20.1875q4.796875 -13.40625 10.0 -27.015625q3.609375 -7.59375 7.0 -15.796875q3.40625 -8.203125 6.203125 -14.0q2.796875 -5.796875 4.0 -5.796875q0 0 0 -1.390625q0 -1.40625 0 -3.015625q0 -2.0 3.203125 -7.796875q3.203125 -5.796875 6.0 -12.203125q4.0 -6.0 5.59375 -11.390625q1.609375 -5.40625 1.609375 -5.40625q0 0 1.59375 -2.59375q1.59375 -2.609375 3.203125 -4.203125q10.390625 -5.609375 17.796875 -5.609375q7.40625 0 10.203125 9.609375q3.203125 8.796875 2.796875 12.203125q-0.40625 3.390625 -2.796875 8.1875q-3.203125 7.203125 -8.40625 18.203125q-5.203125 11.0 -10.796875 23.40625q-5.59375 12.390625 -10.59375 23.796875q-5.0 11.40625 -8.0 19.40625q-3.0 8.0 -3.0 10.0l-16.8125 41.1875q-1.59375 2.8125 -5.203125 14.21875q-3.59375 11.390625 -8.390625 27.1875q-4.796875 15.796875 -9.796875 32.0q-5.0 16.203125 -9.796875 29.40625q-2.40625 6.796875 -4.40625 11.390625q-2.0 4.609375 -4.0 7.0q-2.0 2.40625 -4.796875 2.40625q-1.609375 0 -3.609375 -1.203125q-2.0 -1.203125 -4.390625 -3.203125zm141.59375 -0.796875q-3.59375 0.40625 -9.796875 -3.40625q-6.203125 -3.796875 -13.203125 -9.40625q-7.0 -5.59375 -13.203125 -11.59375q-6.1875 -6.0 -9.796875 -10.390625q-6.390625 -9.203125 -16.203125 -24.796875q-9.796875 -15.609375 -14.59375 -32.8125q-2.796875 -12.796875 -5.796875 -20.59375q-3.0 -7.796875 -3.0 -13.796875l0.390625 -24.796875l29.203125 -2.0q2.0 21.59375 6.390625 35.796875q4.40625 14.203125 10.40625 25.390625q4.8125 10.40625 10.609375 20.40625q5.796875 10.0 13.0 16.796875q9.203125 10.0 16.390625 14.8125q7.203125 4.796875 10.8125 4.796875q7.59375 3.59375 11.1875 6.796875q3.609375 3.203125 4.796875 5.609375q1.203125 2.390625 0.8125 4.390625q0.390625 1.203125 -0.40625 5.390625q-0.796875 4.203125 -2.40625 8.40625q-1.59375 4.203125 -4.390625 5.40625q-2.796875 2.796875 -7.203125 3.390625q-4.390625 0.609375 -14.0 -3.796875zm-92.796875 -152.79688l29.203125 -21.609375q1.203125 -1.1875 7.0 -6.59375q5.796875 -5.40625 22.59375 -18.203125l52.796875 -42.796875q10.0 -5.203125 18.40625 -11.59375q8.40625 -6.40625 14.0 -10.0q6.796875 -4.8125 14.0 -10.0q7.203125 -5.203125 8.796875 -4.8125q3.203125 -1.59375 7.59375 3.015625q4.40625 4.59375 7.40625 10.796875q3.0 6.1875 2.609375 9.390625q0.796875 4.0 -1.203125 6.8125q-2.0 2.796875 -10.40625 7.59375q-10.0 4.390625 -15.796875 8.390625q-5.796875 4.0 -6.59375 6.0q0 0 -8.40625 6.40625q-8.40625 6.40625 -20.0 14.40625q-16.0 10.796875 -26.203125 19.0q-10.203125 8.1875 -13.390625 13.0q-1.609375 0 -3.015625 1.203125q-1.390625 1.1875 -2.984375 0.796875q0 0 -3.203125 2.203125q-3.203125 2.1875 -4.796875 4.59375q-0.8125 2.0 -3.40625 5.203125q-2.59375 3.1875 -6.203125 2.796875q-2.796875 1.59375 -10.0 6.59375q-7.203125 5.0 -15.0 11.0q-7.796875 6.0 -13.40625 10.8125q-5.59375 4.796875 -5.984375 5.59375l-14.40625 -30.0z" fill-rule="nonzero"/></g></svg>